<svg xmlns="http://www.w3.org/2001/svg" hidden="true">
 	<symbol id="logo" viewBox="0 0 194 67" xmlns="http://www.w3.org/2000/svg">
		<g fill="none" fill-rule="evenodd">
		<path d="M71.76 12.93h3.288V28.1h-3.29l.002-15.17zm6.05 4.186h2.827v1.53h.063c.755-1.233 2.053-1.828 3.31-1.828 3.164 0 3.96 1.805 3.96 4.525V28.1h-2.975v-6.204c0-1.805-.524-2.697-1.906-2.697-1.62 0-2.31.91-2.31 3.14v5.76h-2.97V17.11v.006zm15.82 0h2.18v2.018h-2.18v5.44c0 1.02.25 1.273 1.257 1.273.315 0 .608-.02.923-.084v2.358c-.504.09-1.153.11-1.74.11-1.822 0-3.414-.42-3.414-2.61v-6.48h-1.803v-2.02h1.803v-3.29h2.975v3.3-.01zm5.868 6.224c.084 1.912 1.006 2.784 2.66 2.784 1.194 0 2.158-.744 2.346-1.423h2.62c-.838 2.6-2.62 3.7-5.07 3.7-3.415 0-5.53-2.38-5.53-5.78 0-3.29 2.24-5.8 5.53-5.8 3.687 0 5.467 3.15 5.257 6.53H99.5l-.002-.01zm4.84-1.91c-.274-1.53-.922-2.338-2.367-2.338-1.88 0-2.43 1.487-2.47 2.337h4.84zm4.732-4.314h2.827v2.04h.042c.54-1.382 2.01-2.338 3.45-2.338.21 0 .46.042.65.107v2.803c-.27-.064-.71-.105-1.07-.105-2.18 0-2.94 1.593-2.94 3.526v4.95h-2.98V17.11l.01.006zm7.965 0h2.83v1.53h.06c.756-1.233 2.054-1.828 3.312-1.828 3.163 0 3.96 1.805 3.96 4.525V28.1h-2.976v-6.204c0-1.805-.52-2.697-1.9-2.697-1.61 0-2.3.91-2.3 3.14v5.76h-2.97V17.11l-.01.006zm12.11 3.378c.168-2.825 2.66-3.675 5.09-3.675 2.16 0 4.756.48 4.756 3.12v5.71c0 1 .11 1.99.38 2.44h-3.01c-.1-.34-.19-.7-.21-1.06-.94.99-2.32 1.35-3.64 1.35-2.05 0-3.68-1.04-3.68-3.294 0-2.485 1.843-3.08 3.686-3.335 1.82-.277 3.52-.213 3.52-1.445 0-1.294-.88-1.485-1.93-1.485-1.13 0-1.865.464-1.97 1.654h-2.973l-.01.01zm6.87 2.23c-.5.448-1.55.468-2.47.638-.923.19-1.76.51-1.76 1.615 0 1.126.86 1.402 1.823 1.402 2.325 0 2.41-1.87 2.41-2.53v-1.13h-.003zm8.865-5.608h2.178v2.018h-2.18v5.44c0 1.02.252 1.273 1.257 1.273.316 0 .608-.02.923-.084v2.358c-.503.09-1.153.11-1.74.11-1.822 0-3.414-.42-3.414-2.61v-6.48h-1.8v-2.02h1.8v-3.29h2.976v3.3-.01zm7.03-1.7h-2.975V12.93h2.975v2.486zm-2.974 1.7h2.975V28.1h-2.97V17.116zm10.394-.298c3.414 0 5.614 2.294 5.614 5.8 0 3.484-2.2 5.778-5.615 5.778-3.4 0-5.6-2.294-5.6-5.778 0-3.506 2.2-5.8 5.59-5.8h.01zm-.01 9.306c2.03 0 2.64-1.764 2.64-3.505 0-1.77-.61-3.53-2.64-3.53-2.01 0-2.62 1.76-2.62 3.52 0 1.74.61 3.5 2.62 3.5v.01zm6.99-9.01h2.83v1.53h.063c.754-1.232 2.053-1.827 3.31-1.827 3.163 0 3.96 1.805 3.96 4.525V28.1h-2.976v-6.204c0-1.805-.524-2.697-1.906-2.697-1.61 0-2.3.91-2.3 3.14v5.76h-2.97V17.11v.005zm12.11 3.38c.17-2.826 2.66-3.676 5.09-3.676 2.16 0 4.757.48 4.757 3.12v5.71c0 1 .105 1.995.378 2.442h-3.017c-.11-.34-.19-.7-.21-1.06-.95.996-2.33 1.357-3.65 1.357-2.058 0-3.69-1.04-3.69-3.293 0-2.485 1.842-3.08 3.685-3.335 1.823-.28 3.52-.22 3.52-1.45 0-1.3-.88-1.49-1.928-1.49-1.133 0-1.865.463-1.97 1.653h-2.974l.01.01zm6.87 2.23c-.5.447-1.55.467-2.47.637-.92.19-1.76.51-1.76 1.62 0 1.13.86 1.4 1.824 1.4 2.325 0 2.41-1.87 2.41-2.53v-1.13l-.003.01zm5.18-9.795h2.973V28.1h-2.974V12.93zM71.76 32.05h3.29v5.82h6.05v-5.82h3.29v15.168H81.1v-6.543h-6.05v6.543h-3.29v-15.17.002zm20.093 3.887c3.415 0 5.615 2.294 5.615 5.8 0 3.484-2.2 5.778-5.615 5.778-3.393 0-5.592-2.295-5.592-5.778 0-3.506 2.2-5.8 5.6-5.8zm.008 9.306c2.04 0 2.64-1.764 2.64-3.505 0-1.764-.6-3.528-2.64-3.528-2.01 0-2.62 1.764-2.62 3.528 0 1.74.61 3.505 2.62 3.505zm17.33 1.977h-2.83v-1.53h-.06c-.755 1.23-2.054 1.826-3.31 1.826-3.165 0-3.96-1.807-3.96-4.526v-6.756H102v6.203c0 1.807.522 2.7 1.905 2.7 1.613 0 2.304-.915 2.304-3.145v-5.758h2.97V47.22zm4.38-3.57c.02 1.316 1.11 1.848 2.284 1.848.86 0 1.948-.34 1.948-1.403 0-.914-1.235-1.232-3.37-1.7-1.72-.382-3.437-.997-3.437-2.93 0-2.805 2.39-3.527 4.712-3.527 2.368 0 4.547.807 4.776 3.505h-2.827c-.085-1.168-.964-1.487-2.033-1.487-.67 0-1.657.127-1.657 1.02 0 1.083 1.68 1.232 3.377 1.636 1.737.403 3.434 1.04 3.434 3.08 0 2.89-2.48 3.824-4.95 3.824-2.52 0-4.97-.955-5.09-3.866h2.833zm11.395-1.19c.084 1.91 1.005 2.783 2.66 2.783 1.194 0 2.158-.743 2.346-1.424h2.62c-.84 2.59-2.62 3.69-5.07 3.69-3.416 0-5.53-2.38-5.53-5.78 0-3.3 2.24-5.8 5.53-5.8 3.687 0 5.467 3.14 5.257 6.52h-7.812v.01zm4.84-1.912c-.274-1.53-.923-2.337-2.367-2.337-1.885 0-2.43 1.49-2.472 2.34h4.84z" fill="#003B79"></path><text transform="translate(71.215 47.453)" font-size="13.964" font-family="Helvetica" fill="#72797E"><tspan x=".205" y="14.662">Voronezh-Linguist</tspan></text><path d="M61.886 31.155c0 17.185-13.737 31.117-30.68 31.117C14.26 62.272.526 48.34.526 31.155.526 13.97 14.26.04 31.206.04c16.942 0 30.68 13.93 30.68 31.115" fill="#004E7A"></path><path d="M61.658 31.316c0 17.057-13.634 30.885-30.453 30.885C14.388 62.2.753 48.38.753 31.32S14.388.432 31.205.432c16.82 0 30.453 13.827 30.453 30.884" fill="#003D7A"></path><path d="M32.836 17.248v.023c0 2.04-1.627 3.69-3.64 3.69-2.01 0-3.64-1.66-3.64-3.7s1.63-3.69 3.64-3.69v.01c2.007 0 3.63 1.646 3.64 3.68zM25.85 22.64h6.68v24.39h-6.68V22.64zm16.597 2.986v-12.86h-6.852v34.26h6.852v-13.3c-.03-2.672 1.3-5.642 4.263-5.566 4.287.11 3.94 3.73 3.94 7.07v11.795h6.732l-.01-14.825c.107-3.49-.004-10.62-8.024-10.62-2.875 0-5.733 1.51-6.9 4.046z" fill="#fff"></path></g>
    </symbol>
	<symbol id="vk" viewBox="0 0 548.358 548.358">
		<path d="M545.451,400.298c-0.664-1.431-1.283-2.618-1.858-3.569c-9.514-17.135-27.695-38.167-54.532-63.102l-0.567-0.571   l-0.284-0.28l-0.287-0.287h-0.288c-12.18-11.611-19.893-19.418-23.123-23.415c-5.91-7.614-7.234-15.321-4.004-23.13   c2.282-5.9,10.854-18.36,25.696-37.397c7.807-10.089,13.99-18.175,18.556-24.267c32.931-43.78,47.208-71.756,42.828-83.939   l-1.701-2.847c-1.143-1.714-4.093-3.282-8.846-4.712c-4.764-1.427-10.853-1.663-18.278-0.712l-82.224,0.568   c-1.332-0.472-3.234-0.428-5.712,0.144c-2.475,0.572-3.713,0.859-3.713,0.859l-1.431,0.715l-1.136,0.859   c-0.952,0.568-1.999,1.567-3.142,2.995c-1.137,1.423-2.088,3.093-2.848,4.996c-8.952,23.031-19.13,44.444-30.553,64.238   c-7.043,11.803-13.511,22.032-19.418,30.693c-5.899,8.658-10.848,15.037-14.842,19.126c-4,4.093-7.61,7.372-10.852,9.849   c-3.237,2.478-5.708,3.525-7.419,3.142c-1.715-0.383-3.33-0.763-4.859-1.143c-2.663-1.714-4.805-4.045-6.42-6.995   c-1.622-2.95-2.714-6.663-3.285-11.136c-0.568-4.476-0.904-8.326-1-11.563c-0.089-3.233-0.048-7.806,0.145-13.706   c0.198-5.903,0.287-9.897,0.287-11.991c0-7.234,0.141-15.085,0.424-23.555c0.288-8.47,0.521-15.181,0.716-20.125   c0.194-4.949,0.284-10.185,0.284-15.705s-0.336-9.849-1-12.991c-0.656-3.138-1.663-6.184-2.99-9.137   c-1.335-2.95-3.289-5.232-5.853-6.852c-2.569-1.618-5.763-2.902-9.564-3.856c-10.089-2.283-22.936-3.518-38.547-3.71   c-35.401-0.38-58.148,1.906-68.236,6.855c-3.997,2.091-7.614,4.948-10.848,8.562c-3.427,4.189-3.905,6.475-1.431,6.851   c11.422,1.711,19.508,5.804,24.267,12.275l1.715,3.429c1.334,2.474,2.666,6.854,3.999,13.134c1.331,6.28,2.19,13.227,2.568,20.837   c0.95,13.897,0.95,25.793,0,35.689c-0.953,9.9-1.853,17.607-2.712,23.127c-0.859,5.52-2.143,9.993-3.855,13.418   c-1.715,3.426-2.856,5.52-3.428,6.28c-0.571,0.76-1.047,1.239-1.425,1.427c-2.474,0.948-5.047,1.431-7.71,1.431   c-2.667,0-5.901-1.334-9.707-4c-3.805-2.666-7.754-6.328-11.847-10.992c-4.093-4.665-8.709-11.184-13.85-19.558   c-5.137-8.374-10.467-18.271-15.987-29.691l-4.567-8.282c-2.855-5.328-6.755-13.086-11.704-23.267   c-4.952-10.185-9.329-20.037-13.134-29.554c-1.521-3.997-3.806-7.04-6.851-9.134l-1.429-0.859c-0.95-0.76-2.475-1.567-4.567-2.427   c-2.095-0.859-4.281-1.475-6.567-1.854l-78.229,0.568c-7.994,0-13.418,1.811-16.274,5.428l-1.143,1.711   C0.288,140.146,0,141.668,0,143.763c0,2.094,0.571,4.664,1.714,7.707c11.42,26.84,23.839,52.725,37.257,77.659   c13.418,24.934,25.078,45.019,34.973,60.237c9.897,15.229,19.985,29.602,30.264,43.112c10.279,13.515,17.083,22.176,20.412,25.981   c3.333,3.812,5.951,6.662,7.854,8.565l7.139,6.851c4.568,4.569,11.276,10.041,20.127,16.416   c8.853,6.379,18.654,12.659,29.408,18.85c10.756,6.181,23.269,11.225,37.546,15.126c14.275,3.905,28.169,5.472,41.684,4.716h32.834   c6.659-0.575,11.704-2.669,15.133-6.283l1.136-1.431c0.764-1.136,1.479-2.901,2.139-5.276c0.668-2.379,1-5,1-7.851   c-0.195-8.183,0.428-15.558,1.852-22.124c1.423-6.564,3.045-11.513,4.859-14.846c1.813-3.33,3.859-6.14,6.136-8.418   c2.282-2.283,3.908-3.666,4.862-4.142c0.948-0.479,1.705-0.804,2.276-0.999c4.568-1.522,9.944-0.048,16.136,4.429   c6.187,4.473,11.99,9.996,17.418,16.56c5.425,6.57,11.943,13.941,19.555,22.124c7.617,8.186,14.277,14.271,19.985,18.274   l5.708,3.426c3.812,2.286,8.761,4.38,14.853,6.283c6.081,1.902,11.409,2.378,15.984,1.427l73.087-1.14   c7.229,0,12.854-1.197,16.844-3.572c3.998-2.379,6.373-5,7.139-7.851c0.764-2.854,0.805-6.092,0.145-9.712   C546.782,404.25,546.115,401.725,545.451,400.298z"/>
	</symbol>
	<symbol id="facebook" viewBox="0 0 90 90">
		<path d="M90,15.001C90,7.119,82.884,0,75,0H15C7.116,0,0,7.119,0,15.001v59.998   C0,82.881,7.116,90,15.001,90H45V56H34V41h11v-5.844C45,25.077,52.568,16,61.875,16H74v15H61.875C60.548,31,59,32.611,59,35.024V41   h15v15H59v34h16c7.884,0,15-7.119,15-15.001V15.001z"/>
	</symbol>
	<symbol id="youtube" xmlns="http://www.w3.org/2000/svg" viewBox="0 0 19 15">
		<g fill-rule="evenodd">
		<path d="M18.804 3.237s-.185-1.47-.755-2.118c-.73-.85-1.54-.86-1.91-.91C13.486 0 9.5 0 9.5 0h-.008S5.505 0 2.848.217c-.37.048-1.18.053-1.903.902C.375 1.76.19 3.23.19 3.23S0 4.962 0 6.682v1.62c0 1.73.19 3.45.19 3.45s.185 1.47.755 2.12c.723.85 1.67.825 2.094.91 1.51.168 6.45.218 6.45.218s3.99-.008 6.65-.222c.37-.05 1.18-.055 1.9-.904.57-.646.754-2.116.754-2.116s.19-1.725.19-3.452V6.69c0-1.728-.19-3.453-.19-3.453z"></path>
		<path id="triangle" d="M7.125 3.75v7.5l5.938-3.75-5.938-3.75z" fill="#fff"></path>
		</g>
	</symbol>
</svg>
